<svg width="50" height="50" viewBox="0 0 50 50" fill="none" xmlns="http://www.w3.org/2000/svg">
<g opacity="0.9">
<circle cx="25" cy="25" r="24.5" fill="#F58439" stroke="#F58439"/>
<path d="M22.7046 20.2727C22.7046 20.6985 22.7046 22.5993 22.7046 22.5993H21.0001V25.4442H22.7046V33.8984H26.2061V25.4445H28.5557C28.5557 25.4445 28.7758 24.0803 28.8824 22.5888C28.5766 22.5888 26.2193 22.5888 26.2193 22.5888C26.2193 22.5888 26.2193 20.9337 26.2193 20.6436C26.2193 20.3528 26.6011 19.9618 26.9784 19.9618C27.355 19.9618 28.1499 19.9618 28.8861 19.9618C28.8861 19.5744 28.8861 18.2361 28.8861 17C27.9033 17 26.7851 17 26.2923 17C22.618 16.9998 22.7046 19.8476 22.7046 20.2727Z" fill="white"/>
</g>
</svg>
