<svg width="50" height="50" viewBox="0 0 50 50" fill="none" xmlns="http://www.w3.org/2000/svg">
<g opacity="0.9">
<circle cx="25" cy="25" r="24.5" fill="#F58439" stroke="#F58439"/>
<path d="M28.6689 17H21.3311C18.9429 17 17 18.9429 17 21.3311V28.6691C17 31.0571 18.9429 33 21.3311 33H28.6691C31.0571 33 33 31.0571 33 28.6691V21.3311C33 18.9429 31.0571 17 28.6689 17V17ZM25 29.3749C22.5876 29.3749 20.6251 27.4124 20.6251 25C20.6251 22.5876 22.5876 20.6251 25 20.6251C27.4124 20.6251 29.3749 22.5876 29.3749 25C29.3749 27.4124 27.4124 29.3749 25 29.3749ZM29.4795 21.6569C28.7666 21.6569 28.1868 21.077 28.1868 20.3641C28.1868 19.6512 28.7666 19.0713 29.4795 19.0713C30.1924 19.0713 30.7723 19.6512 30.7723 20.3641C30.7723 21.077 30.1924 21.6569 29.4795 21.6569Z" fill="white"/>
<path d="M25 21.563C23.105 21.563 21.5631 23.1047 21.5631 24.9999C21.5631 26.8949 23.105 28.4368 25 28.4368C26.8951 28.4368 28.4369 26.8949 28.4369 24.9999C28.4369 23.1047 26.8951 21.563 25 21.563Z" fill="white"/>
<path d="M29.4795 20.0093C29.2839 20.0093 29.1248 20.1685 29.1248 20.364C29.1248 20.5596 29.2839 20.7188 29.4795 20.7188C29.6752 20.7188 29.8344 20.5597 29.8344 20.364C29.8344 20.1683 29.6752 20.0093 29.4795 20.0093Z" fill="white"/>
</g>
</svg>
